<?xml version="1.0" standalone="no"?>
<!DOCTYPE svg PUBLIC "-//W3C//DTD SVG 20010904//EN"
 "http://www.w3.org/TR/2001/REC-SVG-20010904/DTD/svg10.dtd">
<svg version="1.0" xmlns="http://www.w3.org/2000/svg"
 width="700.000000pt" height="700.000000pt" viewBox="0 0 700.000000 700.000000"
 preserveAspectRatio="xMidYMid meet">
<metadata>
Created by potrace 1.11, written by Peter Selinger 2001-2013
</metadata>
<g transform="translate(0.000000,700.000000) scale(0.100000,-0.100000)"
fill="#000000" stroke="none">
<path d="M2585 6794 c-844 -436 -1984 -1030 -1997 -1041 -9 -8 -19 -25 -22
-38 -13 -50 -515 -4969 -510 -4990 3 -13 17 -34 31 -47 l25 -23 809 -3 809 -2
0 -33 c0 -17 -7 -93 -15 -167 -17 -152 -15 -177 21 -211 l26 -24 2564 -3
c2830 -2 2620 -7 2648 60 13 30 -11 278 -240 2508 -202 1967 -258 2482 -272
2509 -15 30 -90 71 -787 433 -1153 598 -1310 678 -1331 678 -10 0 -103 -43
-206 -95 -102 -52 -191 -95 -197 -95 -6 0 -280 139 -609 310 -328 170 -611
312 -627 315 -23 4 -51 -6 -120 -41z m620 -436 c278 -144 505 -265 505 -269 0
-3 -327 -176 -727 -384 -401 -207 -734 -382 -742 -388 -7 -6 -17 -21 -22 -33
-4 -13 -110 -1010 -234 -2216 -124 -1206 -228 -2199 -230 -2205 -3 -10 -161
-13 -744 -13 -407 0 -742 3 -744 8 -2 4 107 1076 242 2382 l246 2375 75 40
c226 120 1856 964 1863 965 4 0 234 -118 512 -262z"/>
</g>
</svg>
